<?xml version="1.0"?>
<svg xmlns="http://www.w3.org/2000/svg" xmlns:xlink="http://www.w3.org/1999/xlink" version="1.1" id="Layer_1" x="0px" y="0px" viewBox="0 0 477.867 477.867" style="enable-background:new 0 0 477.867 477.867;" xml:space="preserve" width="512px" height="512px"><g><g>
	<g>
		<g>
			<polygon points="85.333,420.63 153.6,446.523 153.6,362.519 85.333,336.39    " data-original="#000000" class="active-path" data-old_color="#000000" fill="#00FF17"/>
			<polygon points="170.667,452.997 230.4,475.654 230.4,391.914 170.667,369.051    " data-original="#000000" class="active-path" data-old_color="#000000" fill="#00FF17"/>
			<polygon points="85.333,215.722 153.6,241.851 153.6,157.579 85.333,131.683    " data-original="#000000" class="active-path" data-old_color="#000000" fill="#00FF17"/>
			<polygon points="159.14,96.663 100.288,119.102 155.218,139.939 213.721,117.554    " data-original="#000000" class="active-path" data-old_color="#000000" fill="#00FF17"/>
			<polygon points="85.333,318.122 153.6,344.251 153.6,260.119 85.333,233.99    " data-original="#000000" class="active-path" data-old_color="#000000" fill="#00FF17"/>
			<polygon points="0,99.313 0,183.062 68.267,209.191 68.267,125.209 32.24,111.543    " data-original="#000000" class="active-path" data-old_color="#000000" fill="#00FF17"/>
			<polygon points="74.874,64.411 15.517,86.945 76.273,109.993 135.231,87.512    " data-original="#000000" class="active-path" data-old_color="#000000" fill="#00FF17"/>
			<polygon points="183.05,87.547 237.588,108.421 292.16,87.539 237.614,66.743    " data-original="#000000" class="active-path" data-old_color="#000000" fill="#00FF17"/>
			<polygon points="316.071,78.39 377.627,54.836 323.101,34.148 261.568,57.609    " data-original="#000000" class="active-path" data-old_color="#000000" fill="#00FF17"/>
			<polygon points="0,285.462 68.267,311.591 68.267,227.458 0,201.329    " data-original="#000000" class="active-path" data-old_color="#000000" fill="#00FF17"/>
			<polygon points="299.084,25.036 238.929,2.212 177.441,25.534 237.611,48.475    " data-original="#000000" class="active-path" data-old_color="#000000" fill="#00FF17"/>
			<polygon points="213.658,57.609 153.424,34.644 98.88,55.332 159.14,78.396    " data-original="#000000" class="active-path" data-old_color="#000000" fill="#00FF17"/>
			<polygon points="0,388.262 68.267,414.156 68.267,329.858 0,303.729    " data-original="#000000" class="active-path" data-old_color="#000000" fill="#00FF17"/>
			<polygon points="401.636,63.92 339.992,87.51 400.349,110.522 462.361,86.962    " data-original="#000000" class="active-path" data-old_color="#000000" fill="#00FF17"/>
			<polygon points="324.267,241.851 392.533,215.722 392.533,131.705 324.267,157.591    " data-original="#000000" class="active-path" data-old_color="#000000" fill="#00FF17"/>
			<polygon points="324.267,446.523 392.533,420.63 392.533,336.391 324.267,362.519    " data-original="#000000" class="active-path" data-old_color="#000000" fill="#00FF17"/>
			<polygon points="409.6,414.156 477.867,388.262 477.867,303.731 409.6,329.859    " data-original="#000000" class="active-path" data-old_color="#000000" fill="#00FF17"/>
			<polygon points="324.267,344.251 392.533,318.122 392.533,233.991 324.267,260.119    " data-original="#000000" class="active-path" data-old_color="#000000" fill="#00FF17"/>
			<polygon points="409.6,125.262 409.6,209.191 477.867,183.062 477.867,99.329    " data-original="#000000" class="active-path" data-old_color="#000000" fill="#00FF17"/>
			<polygon points="409.6,311.591 477.867,285.462 477.867,201.331 409.6,227.459    " data-original="#000000" class="active-path" data-old_color="#000000" fill="#00FF17"/>
			<polygon points="316.082,96.66 261.467,117.561 321.302,140.462 376.284,119.614    " data-original="#000000" class="active-path" data-old_color="#000000" fill="#00FF17"/>
			<polygon points="247.467,475.654 307.2,452.997 307.2,369.051 247.467,391.914    " data-original="#000000" class="active-path" data-old_color="#000000" fill="#00FF17"/>
			<polygon points="237.601,126.694 179.209,149.04 238.933,171.696 297.327,149.554    " data-original="#000000" class="active-path" data-old_color="#000000" fill="#00FF17"/>
			<polygon points="170.667,350.783 230.4,373.646 230.4,289.513 170.667,266.651    " data-original="#000000" class="active-path" data-old_color="#000000" fill="#00FF17"/>
			<polygon points="170.667,248.383 230.4,271.246 230.4,186.712 170.667,164.053    " data-original="#000000" class="active-path" data-old_color="#000000" fill="#00FF17"/>
			<polygon points="247.467,271.246 307.2,248.383 307.2,164.062 247.467,186.712    " data-original="#000000" class="active-path" data-old_color="#000000" fill="#00FF17"/>
			<polygon points="247.467,373.646 307.2,350.784 307.2,266.652 247.467,289.514    " data-original="#000000" class="active-path" data-old_color="#000000" fill="#00FF17"/>
		</g>
	</g>
</g></g> </svg>
